<?xml version="1.0" encoding="UTF-8" standalone="no"?>
<svg
   width="24"
   height="24"
   viewBox="0 0 24 24"
   fill="none"
   stroke="#ffffff"
   stroke-width="2"
   stroke-linecap="round"
   stroke-linejoin="round"
   version="1.1"
   id="svg6"
   sodipodi:docname="quick_save.svg"
   xml:space="preserve"
   inkscape:version="1.4.2 (ebf0e940d0, 2025-05-08)"
   xmlns:inkscape="http://www.inkscape.org/namespaces/inkscape"
   xmlns:sodipodi="http://sodipodi.sourceforge.net/DTD/sodipodi-0.dtd"
   xmlns="http://www.w3.org/2000/svg"
   xmlns:svg="http://www.w3.org/2000/svg"><defs
     id="defs6" /><sodipodi:namedview
     id="namedview6"
     pagecolor="#ffffff"
     bordercolor="#000000"
     borderopacity="0.25"
     inkscape:showpageshadow="2"
     inkscape:pageopacity="0.0"
     inkscape:pagecheckerboard="0"
     inkscape:deskcolor="#d1d1d1"
     showguides="false"
     inkscape:zoom="46.315494"
     inkscape:cx="12.835877"
     inkscape:cy="16.49556"
     inkscape:window-width="1920"
     inkscape:window-height="995"
     inkscape:window-x="0"
     inkscape:window-y="0"
     inkscape:window-maximized="1"
     inkscape:current-layer="svg6" /><!-- Дискета --><path
     stroke="none"
     d="M0 0h24v24H0z"
     fill="none"
     id="path1" /><path
     d="M6 4h10l4 4v10a2 2 0 0 1 -2 2h-12a2 2 0 0 1 -2 -2v-12a2 2 0 0 1 2 -2"
     id="path2" /><path
     d="M12 14m-2 0a2 2 0 1 0 4 0a2 2 0 1 0 -4 0"
     id="path3" /><path
     d="M14 4l0 4l-6 0l0 -4"
     id="path4" /><!-- Стрелка вверх --><g
     style="fill:#ffffff;stroke:#000000;stroke-opacity:1"
     id="g6"
     transform="matrix(0.55722082,0,0,0.55722082,9.1943415,12.078976)"><path
       d="M 5.08884,11.2945 C 5.26942,11.7216 5.69482,12 6.16669,12 H 9 v 7 c 0,0.5523 0.44772,1 1,1 h 4 c 0.5523,0 1,-0.4477 1,-1 v -7 h 2.8333 c 0.4719,0 0.8973,-0.2784 1.0779,-0.7055 0.1805,-0.4271 0.0807,-0.9186 -0.2529,-1.2455 L 12.825,4.33474 c -0.4557,-0.44632 -1.1943,-0.44632 -1.65,0 L 5.34174,10.049 c -0.33366,0.3269 -0.43348,0.8184 -0.2529,1.2455 z"
       fill="#000000"
       id="path1-3"
       style="fill:#ffffff;stroke:#000000;stroke-opacity:1" /></g></svg>
