<?xml version="1.0" encoding="UTF-8" standalone="no"?>
<!-- Uploaded to: SVG Repo, www.svgrepo.com, Generator: SVG Repo Mixer Tools -->

<svg
   width="800px"
   height="800px"
   viewBox="0 -0.5 21 21"
   version="1.1"
   id="svg1"
   sodipodi:docname="settings-1365-svgrepo-com.svg"
   inkscape:version="1.4.2 (ebf0e940d0, 2025-05-08)"
   xmlns:inkscape="http://www.inkscape.org/namespaces/inkscape"
   xmlns:sodipodi="http://sodipodi.sourceforge.net/DTD/sodipodi-0.dtd"
   xmlns="http://www.w3.org/2000/svg"
   xmlns:svg="http://www.w3.org/2000/svg"
   xmlns:rdf="http://www.w3.org/1999/02/22-rdf-syntax-ns#"
   xmlns:cc="http://creativecommons.org/ns#"
   xmlns:dc="http://purl.org/dc/elements/1.1/">
  <sodipodi:namedview
     id="namedview1"
     pagecolor="#ffffff"
     bordercolor="#000000"
     borderopacity="0.25"
     inkscape:showpageshadow="2"
     inkscape:pageopacity="0.0"
     inkscape:pagecheckerboard="0"
     inkscape:deskcolor="#d1d1d1"
     inkscape:zoom="1.3894648"
     inkscape:cx="718.62201"
     inkscape:cy="526.10184"
     inkscape:window-width="1920"
     inkscape:window-height="995"
     inkscape:window-x="0"
     inkscape:window-y="0"
     inkscape:window-maximized="1"
     inkscape:current-layer="svg1" />
  <title
     id="title1">settings [#1365]</title>
  <desc
     id="desc1">Created with Sketch.</desc>
  <defs
     id="defs1" />
  <g
     id="Page-1"
     stroke="none"
     stroke-width="1"
     fill="none"
     fill-rule="evenodd"
     style="fill:none;stroke:#000000;stroke-width:1.79751;stroke-dasharray:none;stroke-opacity:1"
     transform="matrix(0.91869015,0,0,0.95896617,0.85307082,0.42738079)">
    <g
       id="Dribbble-Light-Preview"
       transform="translate(-259,-840)"
       fill="#000000"
       style="fill:none;stroke:#000000;stroke-width:1.79751;stroke-dasharray:none;stroke-opacity:1">
      <g
         id="icons"
         transform="translate(56,160)"
         style="fill:none;stroke:#000000;stroke-width:1.79751;stroke-dasharray:none;stroke-opacity:1">
        <path
           d="m 211.26106,690.69476 c -1.638,1.55967 -4.29425,1.55967 -5.93225,0 l -1.71456,-1.63256 c -0.819,-0.77983 -0.819,-2.04394 0,-2.82378 0.819,-0.77983 2.14765,-0.77983 2.96665,0 1.14094,1.08638 2.39199,0.98653 3.19631,0.21968 0.81062,-0.77185 0.90814,-1.96007 -0.23594,-3.04845 -0.81901,-0.77983 -0.81901,-2.04494 0,-2.82477 0.82005,-0.77984 2.14765,-0.77984 2.96665,0 l 1.71875,1.63655 c 1.638,1.55967 1.638,4.08889 0,5.64856 l 9.12962,8.694 c 1.96203,1.86721 -1.00567,4.68999 -2.96561,2.82378 z"
           id="settings-[#1365]"
           style="fill:none;stroke:#000000;stroke-width:1.79751;stroke-dasharray:none;stroke-opacity:1" />
      </g>
    </g>
  </g>
  <metadata
     id="metadata1">
    <rdf:RDF>
      <cc:Work
         rdf:about="">
        <dc:title>settings [#1365]</dc:title>
      </cc:Work>
    </rdf:RDF>
  </metadata>
</svg>
